<?xml version="1.0" encoding="utf-8"?>
<!-- Generator: Adobe Illustrator 23.0.0, SVG Export Plug-In . SVG Version: 6.00 Build 0)  -->
<svg version="1.1" id="图层_1" xmlns="http://www.w3.org/2000/svg" xmlns:xlink="http://www.w3.org/1999/xlink" x="0px" y="0px"
	 viewBox="0 0 949 256" style="enable-background:new 0 0 949 256;" xml:space="preserve">
<style type="text/css">
	.st0{fill:#2366D1;}
	.st1{fill:#609DFF;}
	.st2{fill:#A4C7FF;}
</style>
<path class="st0" d="M110.9,128l110.9,64l-110.9,64L0,192L110.9,128z"/>
<path class="st1" d="M110.9,64l110.9,64l-110.9,64L0,128L110.9,64z"/>
<path class="st2" d="M110.9,0l110.9,64l-110.9,64L0,64L110.9,0z"/>
<g>
	<g>
		<path d="M289.8,94.8h-40.6V78.5h100.5v16.2h-40.6v109.5h-19.3V94.8z"/>
		<path d="M371.5,179.5c0-21,19.1-31.4,66.5-34.9c-0.7-11.6-6.9-20.9-23.6-20.9c-11.3,0-22.5,5.2-31.7,10.6l-7.3-12.8
			c10.5-6.5,26.1-13.3,42.4-13.3c25.9,0,39.3,14.8,39.3,39.6v56.5h-15.8l-1.5-12.2h-0.6c-10,7.8-23.1,14.5-35.9,14.5
			C385.3,206.6,371.5,196,371.5,179.5z M438,178.8v-22c-36.9,2.6-47.8,10-47.8,21.3c0,9.4,8.5,13.3,18.5,13.3
			C418.7,191.4,428.3,186.7,438,178.8z"/>
		<path d="M530.9,125.7H489v-15.3h61.1v93.8H531L530.9,125.7L530.9,125.7z M524.7,78.5c0-8.1,6-13.7,14.2-13.7s14.2,5.6,14.2,13.7
			c0,8.2-6,13.6-14.2,13.6S524.7,86.8,524.7,78.5z"/>
		<path d="M604.3,110.5h15.6l1.5,15h0.8c9.4-9.6,20.1-17.3,34.6-17.3c21.9,0,31.9,13.5,31.9,37.9v58.2h-19.1v-55.7
			c0-16.4-5.5-23.9-19.4-23.9c-10.2,0-17.1,5-26.8,14.9v64.7h-19.1V110.5z"/>
		<path d="M761.3,125.7h-41.9v-15.3h61.1v93.8h-19.1L761.3,125.7L761.3,125.7z M755.1,78.5c0-8.1,6-13.7,14.2-13.7
			s14.2,5.6,14.2,13.7c0,8.2-6,13.6-14.2,13.6S755.1,86.8,755.1,78.5z"/>
		<path d="M832.6,157.5c0-31.4,24.3-49.4,52.8-49.4c15.1,0,26.7,5.9,34.4,13.5l-9.2,12.1c-7.6-6.2-15.3-9.8-24.4-9.8
			c-20.2,0-34.1,13.4-34.1,33.6c0,20.1,13.7,33.3,33.5,33.3c11.1,0,20.4-5,27.8-11l8.2,12.3c-10.7,9.3-24,14.4-37.6,14.4
			C854.8,206.6,832.6,188.6,832.6,157.5z"/>
	</g>
</g>
</svg>
