<?xml version="1.0" encoding="utf-8"?>
<!-- Generator: Adobe Illustrator 23.0.0, SVG Export Plug-In . SVG Version: 6.00 Build 0)  -->
<svg version="1.1" id="图层_1" xmlns="http://www.w3.org/2000/svg" xmlns:xlink="http://www.w3.org/1999/xlink" x="0px" y="0px"
	 viewBox="0 0 1029 256" style="enable-background:new 0 0 1029 256;" xml:space="preserve">
<g>
	<g>
		<path d="M334.4,88h-41.2V68.9h102.1v19H354v128.6h-19.6V88z"/>
		<path d="M417.4,187.5c0-24.7,19.4-36.9,67.5-41c-0.7-13.6-7-24.5-24-24.5c-11.5,0-22.8,6.1-32.2,12.4l-7.4-15
			c10.7-7.6,26.5-15.6,43.1-15.6c26.3,0,39.9,17.4,39.9,46.5v66.3h-16l-1.5-14.3h-0.6c-10.2,9.2-23.5,17-36.5,17
			C431.4,219.3,417.4,206.8,417.4,187.5z M484.9,186.6v-25.8c-37.5,3.1-48.5,11.7-48.5,25c0,11,8.6,15.6,18.8,15.6
			C465.3,201.4,475.1,195.9,484.9,186.6z"/>
		<path d="M579.3,124.3h-42.5v-18h62v110.1h-19.4v-92.2H579.3z M573,68.9c0-9.5,6.1-16.1,14.4-16.1s14.4,6.6,14.4,16.1
			c0,9.6-6.1,16-14.4,16S573,78.6,573,68.9z"/>
		<path d="M653.8,106.5h15.8l1.5,17.6h0.8c9.5-11.3,20.4-20.3,35.1-20.3c22.2,0,32.4,15.8,32.4,44.5v68.3h-19.4v-65.4
			c0-19.3-5.6-28.1-19.7-28.1c-10.4,0-17.4,5.9-27.2,17.5v76h-19.4V106.5z"/>
		<path d="M813.2,124.3h-42.5v-18h62v110.1h-19.4v-92.2H813.2z M806.9,68.9c0-9.5,6.1-16.1,14.4-16.1s14.4,6.6,14.4,16.1
			c0,9.6-6.1,16-14.4,16S806.9,78.6,806.9,68.9z"/>
		<path d="M885.6,161.6c0-36.9,24.7-58,53.6-58c15.3,0,27.1,6.9,34.9,15.8l-9.3,14.2c-7.7-7.3-15.5-11.5-24.8-11.5
			c-20.5,0-34.6,15.7-34.6,39.4c0,23.6,13.9,39.1,34,39.1c11.3,0,20.7-5.9,28.2-12.9l8.3,14.4c-10.9,10.9-24.4,16.9-38.2,16.9
			C908.2,219.3,885.6,198.1,885.6,161.6z"/>
	</g>
</g>
<image style="overflow:visible;" width="330" height="330" xlink:href="ironman1.jpg"  transform="matrix(0.8242 0 0 0.776 0 -8.777462e-02)">
</image>
</svg>
