<?xml version="1.0" encoding="utf-8"?>
<!-- Generator: Adobe Illustrator 23.0.0, SVG Export Plug-In . SVG Version: 6.00 Build 0)  -->
<svg version="1.1" id="图层_1" xmlns="http://www.w3.org/2000/svg" xmlns:xlink="http://www.w3.org/1999/xlink" x="0px" y="0px"
	 viewBox="0 0 949 256" style="enable-background:new 0 0 949 256;" xml:space="preserve">
<image style="overflow:visible;enable-background:new    ;" width="330" height="330" xlink:href="9E69223C.jpg"  transform="matrix(0.8922 0 0 0.7747 0 0.6463)">
</image>
<g>
	<g>
		<path d="M295.8,96.8h-40.6V80.5h100.5v16.2h-40.6v109.5h-19.3V96.8z"/>
		<path d="M377.5,181.5c0-21,19.1-31.4,66.5-34.9c-0.7-11.6-6.9-20.9-23.6-20.9c-11.3,0-22.5,5.2-31.7,10.6l-7.3-12.8
			c10.5-6.5,26.1-13.3,42.4-13.3c25.9,0,39.3,14.8,39.3,39.6v56.5h-15.8l-1.5-12.2h-0.6c-10,7.8-23.1,14.5-35.9,14.5
			C391.3,208.6,377.5,198,377.5,181.5z M444,180.8v-22c-36.9,2.6-47.8,10-47.8,21.3c0,9.4,8.5,13.3,18.5,13.3
			C424.7,193.4,434.3,188.7,444,180.8z"/>
		<path d="M536.9,127.7H495v-15.3h61.1v93.8h-19.1V127.7z M530.7,80.5c0-8.1,6-13.7,14.2-13.7c8.2,0,14.2,5.6,14.2,13.7
			c0,8.2-6,13.6-14.2,13.6C536.7,94.1,530.7,88.8,530.7,80.5z"/>
		<path d="M610.3,112.5h15.6l1.5,15h0.8c9.4-9.6,20.1-17.3,34.6-17.3c21.9,0,31.9,13.5,31.9,37.9v58.2h-19.1v-55.7
			c0-16.4-5.5-23.9-19.4-23.9c-10.2,0-17.1,5-26.8,14.9v64.7h-19.1V112.5z"/>
		<path d="M767.3,127.7h-41.9v-15.3h61.1v93.8h-19.1V127.7z M761.1,80.5c0-8.1,6-13.7,14.2-13.7c8.2,0,14.2,5.6,14.2,13.7
			c0,8.2-6,13.6-14.2,13.6C767.1,94.1,761.1,88.8,761.1,80.5z"/>
		<path d="M838.6,159.5c0-31.4,24.3-49.4,52.8-49.4c15.1,0,26.7,5.9,34.4,13.5l-9.2,12.1c-7.6-6.2-15.3-9.8-24.4-9.8
			c-20.2,0-34.1,13.4-34.1,33.6c0,20.1,13.7,33.3,33.5,33.3c11.1,0,20.4-5,27.8-11l8.2,12.3c-10.7,9.3-24,14.4-37.6,14.4
			C860.8,208.6,838.6,190.6,838.6,159.5z"/>
	</g>
</g>
</svg>
